<?xml version="1.0" standalone="no"?>
<!DOCTYPE svg PUBLIC "-//W3C//DTD SVG 20010904//EN"
 "http://www.w3.org/TR/2001/REC-SVG-20010904/DTD/svg10.dtd">
<svg version="1.0" xmlns="http://www.w3.org/2000/svg"
 width="300.000000pt" height="312.000000pt" viewBox="0 0 300.000000 312.000000"
 preserveAspectRatio="xMidYMid meet">
<metadata>
Created by potrace 1.10, written by Peter Selinger 2001-2011
</metadata>
<g transform="translate(0.000000,312.000000) scale(0.100000,-0.100000)"
fill="currentColor" stroke="none">
<path d="M1860 2684 c-41 -8 -113 -33 -160 -56 -71 -35 -101 -58 -183 -140
l-98 -98 -194 0 -194 0 -20 -26 c-21 -26 -21 -36 -21 -506 l0 -479 25 -24 c35
-36 115 -36 150 0 l25 24 0 406 0 405 148 1 c81 0 158 3 171 5 33 6 55 27 87
83 33 57 102 123 170 161 195 112 464 53 600 -132 43 -59 81 -155 86 -218 3
-34 2 -35 -36 -35 -38 0 -39 0 -52 52 -38 147 -141 252 -284 289 -90 23 -166
14 -256 -31 -85 -42 -134 -93 -178 -184 -27 -58 -31 -76 -31 -151 1 -108 28
-179 95 -253 63 -69 130 -104 319 -166 177 -58 258 -100 322 -168 64 -67 84
-99 109 -173 19 -55 22 -81 18 -170 -4 -96 -7 -112 -41 -180 -81 -169 -240
-270 -421 -270 -226 0 -404 143 -462 372 -8 32 -12 63 -9 68 3 6 22 10 41 10
38 0 39 -2 68 -103 31 -105 138 -209 249 -242 220 -65 445 78 488 312 13 71 5
131 -30 208 -59 129 -121 172 -367 255 -312 106 -412 193 -460 398 -10 42 -14
88 -10 123 5 50 3 60 -19 83 -32 34 -108 37 -149 5 -25 -20 -26 -25 -26 -117
0 -159 47 -292 144 -411 98 -120 227 -195 461 -270 72 -23 148 -52 170 -64 68
-39 105 -115 91 -191 -26 -138 -207 -195 -309 -98 -47 44 -57 73 -57 167 0 82
-1 88 -29 116 l-29 29 -350 0 c-217 0 -360 -4 -379 -10 -17 -6 -35 -21 -42
-33 -7 -15 -12 -116 -14 -307 l-2 -285 -40 0 -40 0 -5 841 c-5 807 -6 843 -24
863 -18 19 -31 21 -210 23 l-191 3 -9 28 c-7 19 -7 34 0 45 12 18 150 22 789
22 l201 0 67 64 c38 37 67 73 67 84 0 48 7 47 -657 47 l-625 0 -24 -29 c-25
-28 -25 -28 -22 -223 l3 -195 28 -24 c28 -24 32 -25 208 -24 98 1 183 -1 189
-5 7 -4 10 -281 10 -839 0 -828 0 -833 21 -860 l20 -26 199 0 c180 0 200 2
221 19 l24 19 5 299 5 298 70 0 c79 0 70 11 99 -124 44 -201 210 -396 405
-475 444 -180 936 179 908 663 -10 173 -70 304 -197 431 -91 91 -178 139 -365
200 -244 79 -293 114 -303 220 -6 62 11 109 51 147 61 58 134 67 213 28 72
-36 95 -81 102 -199 7 -140 0 -136 243 -136 l198 0 20 26 c18 22 21 41 21 111
0 276 -147 527 -375 638 -133 66 -288 87 -425 59z m278 -45 c78 -19 203 -84
264 -139 78 -70 151 -182 184 -283 20 -63 27 -110 32 -204 l5 -123 -204 0
-204 0 -1 98 c0 79 -4 105 -21 138 -46 88 -129 131 -232 121 -104 -11 -181
-91 -189 -197 -10 -142 58 -213 263 -275 302 -91 448 -192 538 -372 160 -316
21 -708 -304 -857 -91 -42 -157 -56 -257 -56 -324 1 -594 252 -628 585 l-7 65
-113 0 -114 0 0 -320 0 -320 -205 0 -205 0 0 870 0 870 -220 -5 -220 -5 0 207
0 208 641 0 c572 0 638 -2 617 -15 -13 -8 -44 -34 -69 -57 l-46 -43 -512 0
-511 0 0 -90 0 -91 220 3 220 3 0 -870 0 -870 85 0 85 0 0 323 0 322 380 0
380 0 0 -97 c0 -73 5 -108 19 -138 41 -91 156 -148 251 -125 70 17 122 58 154
121 32 65 34 126 5 189 -38 85 -67 102 -296 179 -220 73 -308 123 -403 228
-101 113 -171 316 -154 451 l6 52 60 0 59 0 -6 -57 c-8 -72 9 -171 41 -243 73
-161 194 -248 464 -330 156 -48 220 -81 278 -145 62 -67 87 -134 86 -230 0
-125 -77 -246 -193 -302 -49 -24 -68 -28 -146 -28 -82 0 -97 3 -157 33 -105
51 -173 150 -185 268 l-6 54 -85 0 -85 0 6 -62 c37 -382 465 -595 783 -390
152 99 234 252 234 437 0 141 -46 253 -144 350 -75 75 -159 119 -338 175 -226
71 -296 117 -350 228 -29 60 -33 76 -33 152 0 73 4 93 28 141 32 67 109 142
175 172 72 33 198 31 274 -5 108 -50 183 -154 196 -270 l7 -59 83 -2 82 -2 0
46 c0 58 -33 169 -68 229 -14 25 -48 68 -75 97 -157 166 -388 207 -595 107
-71 -35 -173 -131 -207 -196 l-28 -53 -188 2 -189 2 0 -435 0 -434 -60 0 -60
0 0 493 0 492 212 -3 213 -2 40 56 c83 117 233 212 380 240 75 14 185 11 263
-7z"/>
</g>
</svg>
